# xmcd CD database file
#
# Track frame offsets:
#	150
#	12570
#	26495
#	34895
#	44660
#	55555
#	64922
#	74617
#	84537
#	97515
#	111775
#	122532
#
# Disc length: 1761 seconds
#
# Revision: 4
# Processed by: cddbd v1.5.1PL2 Copyright (c) Steve Scherf et al.
# Submitted via: CDex 1.51
#
DISCID=9b06df0c
DTITLE=Jim Reeves - All Time Greatest Hits, Disc 3
DYEAR=1997
DGENRE=Country
TTITLE0=I Can't Stop Loving You
TTITLE1=I Fall To Pieces
TTITLE2=From A Jack To A King
TTITLE3=When Two Worlds Collide
TTITLE4=Make The World Go Away
TTITLE5=Billy Bayou
TTITLE6=Is This Me
TTITLE7=Snow Flake
TTITLE8=I'd Fight The World
TTITLE9=Guilty
TTITLE10=I Guess I'm Crazy
TTITLE11=I Won't Come In While He's There
EXTD=YEAR: 1997
EXTT0=
EXTT1=
EXTT2=
EXTT3=
EXTT4=
EXTT5=
EXTT6=
EXTT7=
EXTT8=
EXTT9=
EXTT10=
EXTT11=
PLAYORDER=
